<svg class="not-found-redirects-logo" width="256" height="256" viewBox="0 0 256 256" fill="none" xmlns="http://www.w3.org/2000/svg">
    <path class="background" d="M0 32C0 14.3269 14.3269 0 32 0H224C241.673 0 256 14.3269 256 32V224C256 241.673 241.673 256 224 256H32C14.3269 256 0 241.673 0 224V32Z" fill="#FF0099"/>
    <path d="M115.188 52.3125L53.3125 114.188C49.9063 117.594 48 122.188 48 127C48 131.812 49.9063 136.406 53.3125 139.812L115.188 201.688C118.594 205.094 123.188 207 128 207C132.812 207 137.406 205.094 140.812 201.688L202.688 139.812C206.094 136.406 208 131.812 208 127C208 122.188 206.094 117.594 202.688 114.188L140.812 52.3125C137.406 48.9063 132.812 47 128 47C123.188 47 118.594 48.9063 115.188 52.3125ZM168.312 127.312L145.812 149.812C142.875 152.75 138.125 152.75 135.219 149.812C132.313 146.875 132.281 142.125 135.219 139.219L144.906 129.531H120.5C116.344 129.531 113 132.875 113 137.031V149.531C113 153.688 109.656 157.031 105.5 157.031C101.344 157.031 98 153.688 98 149.531V137.031C98 124.594 108.063 114.531 120.5 114.531H144.906L135.219 104.844C132.281 101.906 132.281 97.1562 135.219 94.25C138.156 91.3437 142.906 91.3125 145.812 94.25L168.312 116.75C171.25 119.688 171.25 124.438 168.312 127.344V127.312Z" fill="white"/>
</svg>